<?xml version="1.0" encoding="utf-8"?>
<!-- Generator: Adobe Illustrator 16.0.0, SVG Export Plug-In . SVG Version: 6.00 Build 0)  -->
<!DOCTYPE svg PUBLIC "-//W3C//DTD SVG 1.1//EN" "http://www.w3.org/Graphics/SVG/1.1/DTD/svg11.dtd">
<svg version="1.1" id="Calque_1" xmlns="http://www.w3.org/2000/svg" xmlns:xlink="http://www.w3.org/1999/xlink" x="0px" y="0px"
	 width="200px" height="300px" viewBox="362.5 128.5 200 300" enable-background="new 362.5 128.5 200 300" xml:space="preserve">
<path fill="#0037AE" d="M420.546,424.516c-2.39-1.711-2.367-6.766,2.874-8.3c8.417-2.467,14.822-9.912,14.822-9.912l11.268,0.271
	c0.41,0.613,0.768,1.219,1.074,1.814c3.294,6.362,1.096,11.476,1.096,11.476s-24.255,5.221-29.33,5.221"/>
<path fill="#FF9D9C" d="M438.336,400.14l-0.094,6.164c0,0,1.004,3.952,5.877,3.531c4.344-0.377,5.446-3.112,5.446-3.112v-7.669
	L438.336,400.14z"/>
<g>
	
		<path fill="none" stroke="#FFFFFF" stroke-width="0.2643" stroke-linecap="round" stroke-linejoin="round" stroke-miterlimit="10" d="
		M426.482,415.337c0,0,1.708,0.469,1.957,2.27"/>
	
		<path fill="none" stroke="#FFFFFF" stroke-width="0.2643" stroke-linecap="round" stroke-linejoin="round" stroke-miterlimit="10" d="
		M429.047,414.159c0,0,1.708,0.467,1.959,2.266"/>
	
		<path fill="none" stroke="#FFFFFF" stroke-width="0.2643" stroke-linecap="round" stroke-linejoin="round" stroke-miterlimit="10" d="
		M431.335,412.948c0,0,1.708,0.468,1.959,2.268"/>
	
		<path fill="none" stroke="#FFFFFF" stroke-width="0.2643" stroke-linecap="round" stroke-linejoin="round" stroke-miterlimit="10" d="
		M433.894,411.369c0,0,1.708,0.469,1.959,2.269"/>
	
		<path fill="none" stroke="#FFFFFF" stroke-width="0.2643" stroke-linecap="round" stroke-linejoin="round" stroke-miterlimit="10" d="
		M436.126,409.775c0,0,1.708,0.468,1.959,2.268"/>
</g>
<path fill="#0037AE" d="M438.051,404.471c1.476,0.104,4.977,0.637,4.994,3.25c0.021,3.357,4.646-2.229,6.521-0.998
	c1.875,1.231-1.327,4.364-1.616,4.491c-0.291,0.126-6.855,1.279-7.926,0.343C436.893,408.824,437.564,404.438,438.051,404.471z"/>
<path opacity="0.3" fill="#9E92DE" enable-background="new    " d="M420.546,424.516c0,0,28.604-4.328,29.605-5.484
	c0.879-1.018,1.282-6.6,0.433-10.641c3.294,6.362,1.096,11.476,1.096,11.476s-24.255,5.221-29.33,5.221"/>
<path fill="#0037AE" d="M509.388,424.516c2.392-1.711,2.367-6.766-2.872-8.3c-8.42-2.467-14.823-9.912-14.823-9.912l-11.269,0.271
	c-0.41,0.613-0.768,1.219-1.074,1.814c-3.294,6.362-1.096,11.476-1.096,11.476s24.254,5.221,29.33,5.221"/>
<path fill="#FF9D9C" d="M491.598,400.14l0.095,6.164c0,0-1.004,3.952-5.877,3.531c-4.346-0.377-5.446-3.112-5.446-3.112v-7.669
	L491.598,400.14z"/>
<g>
	
		<path fill="none" stroke="#FFFFFF" stroke-width="0.2643" stroke-linecap="round" stroke-linejoin="round" stroke-miterlimit="10" d="
		M503.453,415.337c0,0-1.71,0.469-1.959,2.27"/>
	
		<path fill="none" stroke="#FFFFFF" stroke-width="0.2643" stroke-linecap="round" stroke-linejoin="round" stroke-miterlimit="10" d="
		M500.886,414.159c0,0-1.708,0.467-1.959,2.266"/>
	
		<path fill="none" stroke="#FFFFFF" stroke-width="0.2643" stroke-linecap="round" stroke-linejoin="round" stroke-miterlimit="10" d="
		M498.601,412.948c0,0-1.71,0.468-1.961,2.268"/>
	
		<path fill="none" stroke="#FFFFFF" stroke-width="0.2643" stroke-linecap="round" stroke-linejoin="round" stroke-miterlimit="10" d="
		M496.041,411.369c0,0-1.709,0.469-1.959,2.269"/>
	
		<path fill="none" stroke="#FFFFFF" stroke-width="0.2643" stroke-linecap="round" stroke-linejoin="round" stroke-miterlimit="10" d="
		M493.808,409.775c0,0-1.71,0.468-1.959,2.268"/>
</g>
<path fill="#0037AE" d="M491.883,404.471c-1.475,0.104-4.975,0.637-4.994,3.25c-0.023,3.357-4.646-2.229-6.521-0.998
	c-1.875,1.231,1.329,4.364,1.618,4.491c0.289,0.126,6.852,1.279,7.926,0.343C493.04,408.824,492.369,404.438,491.883,404.471z"/>
<path opacity="0.3" fill="#9E92DE" enable-background="new    " d="M509.388,424.516c0,0-28.604-4.328-29.604-5.484
	c-0.877-1.018-1.283-6.6-0.434-10.641c-3.294,6.362-1.096,11.476-1.096,11.476s24.254,5.221,29.33,5.221"/>
<path fill="#001D51" d="M426.028,214.038c0,0-0.35,5.51,16.452,7.301l0.121-1.342l-9.281-7.133L426.028,214.038z"/>
<path fill="#5559BD" d="M494.229,400.89c0,0-4.462,4.537-14.932,1.413c-0.431-0.128-0.867-0.27-1.314-0.423l-5.597-69.589
	l-7.371-41.689l-7.37,41.689l-5.598,69.589c-0.249,0.088-0.494,0.167-0.737,0.243c-10.883,3.472-15.508-1.233-15.508-1.233
	l0.668-70.177l3.226-69.533l25.319,1.319l25.32-1.319l3.226,69.533L494.229,400.89z"/>
<path fill="#FF9D9C" d="M427.662,214.126c0,0-5.301,26.595-3.081,30.938c2.221,4.343,5.982,5.597,8.491,4.536
	c2.51-1.062,9.529-29.603,9.529-29.603S437.457,212.196,427.662,214.126z"/>
<path fill="#FF9D9C" d="M486.442,211.309c0,0,12.521,21.248,15.721,24.929c3.354,3.859,10.163,1.026,11.381-1.412
	c2.313-4.626-11.917-28.724-11.917-28.724S492.653,203.493,486.442,211.309z"/>
<path fill="#FF9D9C" d="M454.545,184.46l3.765-1.343l1.377-9.19h9.045l1.289,8.884l4.453,1.649l2.122,14.355
	c0,0-33.172,3.777-37.9,1.93C433.966,198.897,447.26,187.162,454.545,184.46z"/>
<path fill="#0037AE" d="M490.248,226.414c-0.071,4.508-0.141,9.43-0.141,11.413c0,2.568,0.683,12.229,1.184,18.962
	c0.289,3.889,0.518,6.798,0.518,6.798c-15.922,5.791-53.18,0.94-53.18,0.94c0.731-8.959,2.467-28.096,3.382-38.113
	c0.019-0.168,0.031-0.33,0.046-0.492c0.071-0.75,0.134-1.445,0.189-2.073l0.048-0.496c0.085-0.932,0.155-1.696,0.207-2.261
	c0.065-0.709,0.102-1.098,0.102-1.098c-0.023-0.023-0.05-0.043-0.073-0.066c-0.314-0.284-0.641-0.556-0.973-0.813
	c-6.49-5.058-15.527-5.079-15.527-5.079s4.317-18.044,6.178-19.446c3.133-2.035,14.892-7.023,19.202-8.83
	c0.999-0.417,1.599-0.663,1.599-0.663s1.392,11.69,12.009,10.869c10.615-0.82,9.458-11.508,9.458-11.508s0.718,0.202,1.882,0.539
	c4.563,1.309,15.955,4.638,17.417,5.64c1.836,1.256,10.23,17.371,10.23,17.371c-6.563,9.553-13.606,9.455-13.606,9.455
	s-0.013,0.623-0.027,1.654c-0.01,0.553-0.021,1.221-0.032,1.977c-0.016,0.692-0.024,1.454-0.042,2.261
	c-0.002,0.163-0.002,0.328-0.004,0.496c-0.012,0.669-0.023,1.363-0.036,2.073C490.252,226.084,490.248,226.25,490.248,226.414z"/>
<g>
	<path fill="#FFFFFF" d="M490.368,219.116c-0.01,0.553-0.021,1.221-0.032,1.977h-47.835c0.065-0.709,0.102-1.098,0.102-1.098
		c-0.023-0.023-0.05-0.043-0.073-0.066c-0.314-0.284-0.641-0.556-0.973-0.813H490.368z"/>
	<path fill="#FFFFFF" d="M442.294,223.354h48c-0.002,0.163-0.002,0.328-0.004,0.496h-48.044L442.294,223.354z"/>
	<path fill="#FFFFFF" d="M490.254,225.922c-0.002,0.162-0.006,0.327-0.006,0.492h-48.237c0.019-0.168,0.031-0.33,0.046-0.492
		H490.254z"/>
</g>
<path opacity="0.3" fill="#0037AE" enable-background="new    " d="M491.809,263.587c-15.922,5.791-53.18,0.94-53.18,0.94
	c1.014-12.447,3.974-44.532,3.974-44.532c-0.023-0.023-0.05-0.043-0.073-0.066l0.073-0.177l2.01-10.501
	c-0.104,1.124-4.226,45.978,8.781,50.838c11.336,4.236,28.674,5.042,37.897-3.301C491.58,260.678,491.809,263.587,491.809,263.587z"
	/>
<g>
	<path fill="#FF9D9C" d="M470.123,177.848c0,0-2.696,1.557-5.153,1.943c-2.455,0.386-4.843-0.778-4.872-0.792
		s-2.866-1.346-2.866-1.346l-1.188,12.86l0.316,0.214c4.161,2.803,10.163,2.831,14.378,0.067l0.615-0.405L470.123,177.848z"/>
</g>
<g opacity="0.5">
	<path fill="#FF9D9C" d="M462.398,179.694c2.456,0.386,4.841-0.777,4.872-0.791c0.029-0.014,2.823-1.345,2.823-1.345l0.172,1.768
		c-3.832,2.955-8.868,5.035-13.524,3.556l0.483-5.139C457.226,177.744,459.941,179.308,462.398,179.694z"/>
</g>
<path fill="#FF9D9C" d="M463.286,216.327l5.119,6.7l-29.707,25.666c-3.409,3.438-9.184,2.805-11.819-1.298l0,0
	c-2.19-3.411-1.309-7.908,2.003-10.208L463.286,216.327z"/>
<g>
	<path fill="#FF9D9C" d="M531.811,210.463l-16.666,24.906c-2.222,4.303-8.916,5.302-11.666,2.307
		c-1.619-1.349-2.37-3.074-2.37-4.869c0-1.654,0.642-3.367,1.824-4.896l6.708-6.722l0.45-0.452l14.569-14.597c0,0,0,0,0-0.003
		l0.004-0.003l1.652,1.001l1.808,1.095L531.811,210.463z"/>
	<path fill="#FF9D9C" d="M540.074,200.954c-0.278,0.543-0.582,1.08-0.892,1.566c-1.056,1.663-1.937,2.799-3.532,4.241
		c-1.597,1.442-3.843,3.703-3.843,3.703l-5.54-3.229l6.233-13.521c0,0,1.706-1.885,2.287-1.999c1.354-0.27,2.886,0.627,2.585,1.924
		c0,0,2.262,0.067,2.063,2.159c0,0,1.662,0.104,1.895,1.073C541.506,197.6,540.907,199.316,540.074,200.954z"/>
	<path fill="#FF9D9C" d="M525.959,201.467c0,0,0.346-4.075,0.729-4.934c0.385-0.858,10.611-14.341,11.549-14.514
		c0.937-0.173,2.216,0.259,2.033,1.423s-9.777,14.314-9.777,14.314L525.959,201.467z"/>
	<path opacity="0.5" fill="#FF9D9C" enable-background="new    " d="M540.074,200.954h-0.004c0.983-1.967,1.258-3.15,1.084-3.857
		c-0.228-0.928-1.141-1.043-1.386-1.067c-0.354-0.036-1.509,1.946-1.915,2.664c0.384-0.702,1.409-2.59,1.424-2.838
		c0.104-1.723-1.187-1.776-1.698-1.731c-0.43,0.033-2.094,2.796-2.604,3.658c0.48-0.835,1.985-3.463,2.15-3.94
		c0.199-0.568-0.088-1.461-1.153-1.899c-0.947-0.389-2.109,1.145-2.368,1.501l1.187-1.728c1.354-0.27,2.886,0.627,2.585,1.924
		c0,0,2.262,0.067,2.063,2.159c0,0,1.662,0.104,1.895,1.073C541.506,197.6,540.907,199.316,540.074,200.954z"/>
	<path opacity="0.5" fill="#FF9D9C" enable-background="new    " d="M526.521,197.051c0,0,2.726-3.041,5.111-3.885
		c0,0,4.996,0.434,5.128,0.566c0.134,0.133,0.436,1.255-0.59,2.22c-1.026,0.965-3.705,0.542-3.705,0.542l-1.592,1.484
		c0,0,1.724,2.598,0.977,5.226L526.521,197.051z"/>
	<path fill="#FF9D9C" d="M524.662,206.14c0,0,1.461-8.498,1.858-9.089c0.396-0.59,3.87-3.127,4.94-3.572
		c0.354-0.146,4.818,0.267,5.175,0.323c0.359,0.056,0.281,1.949-1.056,2.374c-1.335,0.425-3.151,0.201-3.151,0.201l-1.707,1.568
		c0,0,1.597,3.438,1.128,5.26c-0.469,1.822-1.075,2.475-1.075,2.475l-2.841,2.73L524.662,206.14z"/>
</g>
<path fill="#FF9D9C" d="M479.76,212.11c-0.516,0.359-0.876,0.646-0.876,0.646l-0.036-0.061
	C478.848,212.695,479.248,212.449,479.76,212.11z"/>
<path fill="#FF9D9C" d="M479.769,212.104c0.165-0.113,0.344-0.235,0.53-0.354C480.115,211.875,479.937,211.994,479.769,212.104z"/>
<g>
	<path fill="#FF9D9C" d="M486.504,202.729c-0.253,0.917-8.539,5.897-8.801,6.054c0.007,0,0.013,0,0.019-0.003l0.117-0.021
		c0.348-0.057,1.237-0.175,1.583,0.049c0.428,0.279,1.161,1.291,0.772,2.3c0,0,1.354,0,1.72,1.076
		c0.367,1.077-0.452,1.699-0.452,1.699s1.644,0.243,1.304,1.872c-0.192,0.932-7.422,5.648-8.486,6.229
		c-0.159,0.088-0.381,0.155-0.647,0.207c-1.505,0.302-4.406,0.165-5.226,0.836l-5.117-6.667c0,0,3.72-6.842,5.592-7.917
		c0.527-0.304,3.612-0.734,3.612-0.734s11.101-7.485,12.35-7.227C486.088,200.739,486.763,201.795,486.504,202.729z"/>
	<path opacity="0.5" fill="#FF9D9C" enable-background="new    " d="M482.766,215.756c-0.192,0.932-7.422,5.648-8.486,6.229
		c-0.159,0.088-0.382,0.155-0.647,0.207c-0.005,0-0.007,0-0.007,0s8.562-5.729,8.896-6.286c0.332-0.558,0.12-1.263-0.637-1.753
		c-0.756-0.49-4.086,2.323-4.086,2.323l-0.033-0.075c0,0,3.519-2.527,3.893-3.162c0.377-0.635,0.054-1.57-0.869-1.872
		c-0.492-0.16-1.479,0.361-2.295,0.885c0.65-0.441,1.316-0.932,1.433-1.154c0.237-0.452,0.153-1.108-0.148-1.667
		c-0.302-0.56-0.944-0.635-1.614-0.547c-0.666,0.085-4.914,2.868-4.914,2.868v-0.126l4.453-2.839l0.021-0.005l0.117-0.021
		c0.348-0.057,1.237-0.175,1.583,0.049c0.429,0.279,1.161,1.291,0.772,2.3c0,0,1.354,0,1.72,1.076
		c0.367,1.077-0.452,1.699-0.452,1.699S483.104,214.126,482.766,215.756z"/>
</g>
<polygon opacity="0.5" fill="#FF9D9C" enable-background="new    " points="509.641,221.189 503.726,227.116 509.407,220.695 "/>
<polygon opacity="0.5" fill="#FF9D9C" enable-background="new    " points="439.856,230.532 431.584,235.547 440.147,229.46 "/>
<g>
	<path fill="#FF9D9C" d="M477.463,158.64c0,0,3.497-0.245,3.769,2.101c0.481,4.173-2.428,5.617-4.694,6.609
		c0,0-1.917-4.542-1.84-4.987C474.772,161.919,477.463,158.64,477.463,158.64z"/>
	<path fill="#FF9D9C" d="M449.932,158.64c0,0-3.497-0.245-3.769,2.101c-0.481,4.173,2.428,5.617,4.695,6.609
		c0,0,1.915-4.542,1.84-4.987C452.622,161.919,449.932,158.64,449.932,158.64z"/>
	<path fill="#FF9D9C" d="M477.233,155.908c-0.524-7.049-11.922-7.57-11.922-7.57h-1.653h-1.654c0,0-11.397,0.521-11.921,7.57
		c-0.402,5.443-0.807,16.177,5.762,21.827c4.473,3.847,11.155,3.847,15.626,0C478.038,172.085,477.636,161.351,477.233,155.908z"/>
	<path fill="#001D51" d="M480.018,140.201c-7.396,4.134-18.327-5.09-27.541-0.434c-4.384,2.215-1.565,6.927-1.565,6.927
		c-5.01,2.218-2.218,10.276-1.287,12.602c0.09,0.88,0.191,1.77,0.267,2.659c0.024,0.286,0.099,1.612,1.238,1.392
		c0.843-0.162,1-7.657,1-7.657s3.265,0.565,4.569-3.873c0,0,5.873,4.699,19.1,2.524c0,0-0.098,8.421,1.564,8.711
		c0,0,0.022-0.077,0.064-0.214c0-0.005,2.769-7.514,1.731-11.449c-0.563-2.125-1.301-2.797-1.482-2.796
		C483.344,148.283,480.018,140.201,480.018,140.201z"/>
	<g>
		<g>
			<path fill="#001D51" d="M453.618,159.98c0,0,1.469-2.969,4.438-2.675c2.97,0.293,3.525,2.675,3.525,2.675
				S458.188,156.522,453.618,159.98z"/>
			<ellipse fill="#001D51" cx="457.845" cy="162.191" rx="1.42" ry="1.657"/>
		</g>
	</g>
	<g>
		<g>
			<path fill="#001D51" d="M474.694,159.98c0,0-1.47-2.969-4.438-2.675c-2.97,0.293-3.524,2.675-3.524,2.675
				S470.125,156.522,474.694,159.98z"/>
			<ellipse fill="#001D51" cx="470.469" cy="162.191" rx="1.42" ry="1.657"/>
		</g>
	</g>
	<path fill="#001D51" d="M464.529,160.477c0,0,1.957,6.875,1.435,7.918c-0.521,1.044-2.582,1.349-2.582,1.349
		s2.147-0.653,2.147-1.523C465.529,167.351,464.529,160.477,464.529,160.477z"/>
	<path fill="#FFFFFF" d="M459.265,172.049h10.312c0,0-0.685,2.861-5.345,2.817C459.569,174.822,459.265,172.049,459.265,172.049z"/>
	
		<path fill="none" stroke="#FF7171" stroke-width="0.2643" stroke-linecap="round" stroke-linejoin="round" stroke-miterlimit="10" d="
		M478.762,161.385c0,0,0.829-0.275,0.98,0.584c0.074,0.406,0.01,1.865-1.58,3.065"/>
	
		<path fill="none" stroke="#FF7171" stroke-width="0.2643" stroke-linecap="round" stroke-linejoin="round" stroke-miterlimit="10" d="
		M479.11,162.211c0,0-0.456,0.205-0.285,1.161"/>
	
		<path fill="none" stroke="#FF7171" stroke-width="0.2643" stroke-linecap="round" stroke-linejoin="round" stroke-miterlimit="10" d="
		M448.806,161.385c0,0-0.826-0.275-0.979,0.584c-0.071,0.406-0.01,1.865,1.581,3.065"/>
	
		<path fill="none" stroke="#FF7171" stroke-width="0.2643" stroke-linecap="round" stroke-linejoin="round" stroke-miterlimit="10" d="
		M448.457,162.211c0,0,0.457,0.205,0.285,1.161"/>
</g>
<g>
	<g>
		<g>
			
				<path fill="none" stroke="#FFFFFF" stroke-width="0.2643" stroke-linecap="round" stroke-linejoin="round" stroke-miterlimit="10" d="
				M440.127,275.105c0,0,6.589-1.545,9.773-7.818"/>
			
				<line fill="none" stroke="#FFFFFF" stroke-width="0.2643" stroke-linecap="round" stroke-linejoin="round" stroke-miterlimit="10" x1="442.497" y1="274.23" x2="439.109" y2="400.078"/>
		</g>
		<g>
			
				<path fill="none" stroke="#FFFFFF" stroke-width="0.2643" stroke-linecap="round" stroke-linejoin="round" stroke-miterlimit="10" d="
				M489.903,275.105c0,0-6.588-1.545-9.772-7.818"/>
			
				<line fill="none" stroke="#FFFFFF" stroke-width="0.2643" stroke-linecap="round" stroke-linejoin="round" stroke-miterlimit="10" x1="487.534" y1="274.23" x2="490.922" y2="400.078"/>
		</g>
	</g>
</g>
<path fill="#FFFFFF" d="M476.354,184.998c-0.065,3.986-1.411,12.229-11.34,12.776c-11.582,0.637-13.35-9.588-13.606-12.012
	c0.999-0.417,1.599-0.663,1.599-0.663s1.392,11.69,12.009,10.869c10.615-0.82,9.458-11.508,9.458-11.508
	S475.19,184.661,476.354,184.998z"/>
<polygon opacity="0.3" fill="#0037AE" enable-background="new    " points="490.396,217.462 486.703,211.751 490.146,233.622 "/>
<path opacity="0.3" fill="#5559BD" enable-background="new    " d="M473.854,330.537l-8.588-45.111
	c2.034-0.119,3.762-1.588,3.762-1.588c-5.21,2.174-7.236,0-7.236,0c1.055,1.26,2.258,1.637,3.376,1.594L456,327.98l-4.689,74.143
	c0.243-0.076,0.488-0.155,0.737-0.243l5.598-69.589l7.37-41.689l7.371,41.689l5.597,69.589c0.447,0.153,0.885,0.295,1.314,0.423
	L473.854,330.537z"/>
</svg>
