<?xml version="1.0" encoding="utf-8"?>
<!-- Generator: Adobe Illustrator 16.0.0, SVG Export Plug-In . SVG Version: 6.00 Build 0)  -->
<!DOCTYPE svg PUBLIC "-//W3C//DTD SVG 1.1//EN" "http://www.w3.org/Graphics/SVG/1.1/DTD/svg11.dtd">
<svg version="1.1" id="Calque_1" xmlns="http://www.w3.org/2000/svg" xmlns:xlink="http://www.w3.org/1999/xlink" x="0px" y="0px"
	 width="100px" height="100px" viewBox="0 0 100 100" enable-background="new 0 0 100 100" xml:space="preserve">
<path fill="#ADBBF9" d="M72.747,75.79c1.978-1.667,3.796-3.581,5.399-5.752c1.603-2.171,2.896-4.474,3.908-6.853l-6.326-3.383
	c0.885-2.229,1.445-4.539,1.699-6.867l7.182-0.028c0.447-5.271-0.354-10.589-2.33-15.496l-6.873,2.085
	c-0.928-2.15-2.145-4.193-3.646-6.063l5.052-5.095c-1.666-1.976-3.582-3.796-5.752-5.399s-4.473-2.897-6.853-3.909l-3.381,6.326
	c-2.229-0.884-4.539-1.445-6.867-1.699l-0.03-7.182c-5.271-0.447-10.589,0.354-15.496,2.331l2.084,6.873
	c-2.15,0.928-4.193,2.144-6.063,3.645l-5.093-5.052c-1.976,1.667-3.796,3.582-5.399,5.752c-1.604,2.17-2.897,4.474-3.91,6.853
	l6.327,3.382c-0.884,2.229-1.445,4.539-1.699,6.867l-7.182,0.029c-0.447,5.271,0.354,10.589,2.331,15.496l6.873-2.086
	c0.928,2.15,2.144,4.193,3.644,6.063l-5.051,5.095c1.667,1.977,3.582,3.795,5.752,5.398c2.171,1.603,4.473,2.896,6.853,3.909
	l3.381-6.327c2.229,0.885,4.539,1.445,6.867,1.699l0.03,7.183c5.271,0.446,10.588-0.354,15.496-2.331l-2.084-6.873
	c2.15-0.928,4.193-2.145,6.063-3.645L72.747,75.79z M43.512,60.246c-5.642-4.166-6.837-12.116-2.671-17.758
	c4.166-5.641,12.116-6.838,17.757-2.672c5.643,4.166,6.838,12.117,2.672,17.759C57.104,63.216,49.153,64.412,43.512,60.246z"/>
</svg>
