<?xml version="1.0" encoding="utf-8"?>
<!-- Generator: Adobe Illustrator 16.0.0, SVG Export Plug-In . SVG Version: 6.00 Build 0)  -->
<!DOCTYPE svg PUBLIC "-//W3C//DTD SVG 1.1//EN" "http://www.w3.org/Graphics/SVG/1.1/DTD/svg11.dtd">
<svg version="1.1" id="Calque_1" xmlns="http://www.w3.org/2000/svg" xmlns:xlink="http://www.w3.org/1999/xlink" x="0px" y="0px"
	 width="200px" height="200px" viewBox="0 0 200 200" enable-background="new 0 0 200 200" xml:space="preserve">
<path fill="#E4E9F9" d="M142.596,132.447c2.98-3.398,5.626-7.186,7.83-11.357c2.202-4.172,3.839-8.49,4.966-12.869l-11.822-4.191
	c0.945-4.084,1.311-8.224,1.142-12.316l12.408-1.93c-0.605-9.23-3.381-18.214-8.084-26.18l-11.336,5.402
	c-2.167-3.475-4.803-6.688-7.887-9.528l7.399-10.126c-3.397-2.981-7.185-5.626-11.355-7.83c-4.173-2.204-8.492-3.839-12.87-4.966
	l-4.191,11.822c-4.084-0.946-8.224-1.311-12.314-1.142l-1.932-12.409c-9.229,0.607-18.214,3.381-26.179,8.083l5.401,11.337
	c-3.475,2.167-6.688,4.803-9.528,7.886l-10.127-7.4c-2.979,3.399-5.625,7.185-7.829,11.357c-2.203,4.172-3.839,8.492-4.966,12.87
	l11.822,4.191c-0.945,4.084-1.313,8.224-1.143,12.316l-12.409,1.93c0.607,9.231,3.383,18.213,8.085,26.18l11.337-5.402
	c2.167,3.475,4.803,6.688,7.887,9.529l-7.401,10.127c3.399,2.979,7.187,5.625,11.357,7.828c4.173,2.203,8.491,3.84,12.87,4.967
	l4.189-11.822c4.085,0.945,8.226,1.311,12.316,1.141l1.93,12.41c9.23-0.607,18.215-3.381,26.181-8.084l-5.402-11.336
	c3.476-2.168,6.688-4.803,9.528-7.887L142.596,132.447z M84.617,119.604C70.25,112.016,64.754,94.218,72.342,79.85
	c7.589-14.367,25.388-19.863,39.755-12.275c14.366,7.588,19.862,25.386,12.274,39.755
	C116.783,121.695,98.984,127.191,84.617,119.604z M88.594,112.076c-10.209-5.393-14.114-18.04-8.724-28.249
	c5.392-10.209,18.039-14.114,28.248-8.722s14.114,18.039,8.722,28.247C111.449,113.561,98.803,117.467,88.594,112.076z"/>
</svg>
